<svg width="32" height="32" viewBox="0 0 32 32" fill="none" xmlns="http://www.w3.org/2000/svg">
<g id="icon">
<path id="Vector" d="M15.9999 28.1546C14.503 26.9333 12.8493 25.9697 11.0386 25.264C9.22792 24.5582 7.32614 24.1368 5.33325 24V11.5386C7.37236 11.6586 9.31014 12.1453 11.1466 12.9986C12.9821 13.852 14.5999 14.9088 15.9999 16.1693C17.3999 14.9088 19.0177 13.852 20.8533 12.9986C22.6888 12.1453 24.6266 11.6586 26.6666 11.5386V24C24.6684 24.1368 22.7653 24.5582 20.9573 25.264C19.1493 25.9697 17.4968 26.9333 15.9999 28.1546ZM15.9999 11.436C14.807 11.436 13.791 11.0164 12.9519 10.1773C12.1128 9.33818 11.6928 8.32174 11.6919 7.12796C11.691 5.93418 12.1106 4.91774 12.9506 4.07862C13.7906 3.23951 14.807 2.8204 15.9999 2.82129C17.1928 2.82218 18.2088 3.24173 19.0479 4.07996C19.887 4.91818 20.307 5.93418 20.3079 7.12796C20.3088 8.32174 19.8893 9.33818 19.0493 10.1773C18.2093 11.0164 17.1928 11.436 15.9999 11.436Z" fill="#2988CC"/>
</g>
</svg>
