<svg width="544" height="89" viewBox="0 0 544 89" fill="none" xmlns="http://www.w3.org/2000/svg">
<path d="M-6 -1.0153C-6 -1.65663 -5.60141 -2.0106 -5.13996 -2.01405C11.9482 -2.14186 144.411 -3.11132 273.387 -3.43735C337.875 -3.60037 401.489 -3.60252 449.372 -3.25821C473.315 -3.08606 493.32 -2.82731 507.532 -2.45894C514.64 -2.27471 520.29 -2.06329 524.257 -1.82224C526.243 -1.70159 527.791 -1.57436 528.885 -1.44139C529.434 -1.37467 529.848 -1.30875 530.138 -1.24587C530.284 -1.21432 530.381 -1.1872 530.439 -1.16723C530.441 -1.16662 530.443 -1.16602 530.444 -1.16545C535.651 2.89029 540.516 7.50006 542.189 9.11807C542.38 9.30239 542.486 9.56117 542.479 9.83787L541.004 70.3317C541.003 70.3451 541.003 70.3589 541.002 70.3726C541 70.407 540.996 70.4411 540.99 70.4748L536.797 95.1674C536.715 95.6482 536.299 96 535.811 96H-5.00001C-5.55229 96 -6 95.5523 -6 95V-1.0153ZM530.478 -1.15221C530.478 -1.15215 530.477 -1.15285 530.473 -1.15447C530.477 -1.15305 530.478 -1.15228 530.478 -1.15221Z" fill="#011144" stroke="white" stroke-width="2"/>
</svg>
