<svg width="32" height="32" viewBox="0 0 32 32" fill="none" xmlns="http://www.w3.org/2000/svg">
<path d="M12.7307 14.1093C13.9099 14.1437 15.0522 14.5281 16.0124 15.2135C16.9726 15.899 17.7071 16.8545 18.1227 17.9586L18.2694 18.3479L18.6787 18.2706C18.9111 18.2294 19.1467 18.2089 19.3827 18.2093C20.0894 18.2099 20.7828 18.4015 21.3896 18.7639C21.9963 19.1263 22.4938 19.646 22.8294 20.2679L23.136 20.8319L23.3907 20.5919L23.604 20.3919C24.3817 19.6667 24.9809 18.7713 25.3549 17.7759C25.7289 16.7804 25.8675 15.712 25.7598 14.6541C25.6522 13.5962 25.3012 12.5776 24.7343 11.6779C24.1674 10.7782 23.4001 10.0219 22.4923 9.46817C21.5845 8.91441 20.5609 8.57823 19.5016 8.48591C18.4422 8.3936 17.3759 8.54766 16.386 8.93605C15.3961 9.32443 14.5095 9.9366 13.7956 10.7247C13.0816 11.5127 12.5597 12.4553 12.2707 13.4786L12.2134 13.6786L12.0974 14.0893L12.7307 14.1093ZM20.428 9.65461C21.395 9.91533 22.2798 10.4176 22.9992 11.1143C23.7187 11.8109 24.2492 12.6791 24.5409 13.6371C24.8326 14.5952 24.8759 15.6117 24.6668 16.5911C24.4577 17.5705 24.0029 18.4806 23.3454 19.2359C22.8901 18.6115 22.2937 18.1034 21.6049 17.7531C20.916 17.4027 20.1542 17.2201 19.3814 17.2199C19.2125 17.2199 19.0507 17.2266 18.896 17.2399C18.4114 16.1469 17.6524 15.1979 16.6926 14.4848C15.7329 13.7718 14.6051 13.3191 13.4187 13.1706C13.9582 11.8313 14.9681 10.735 16.2587 10.0876C17.5494 9.44024 19.0319 9.28626 20.428 9.65461ZM26.7574 11.5293L27.6134 11.0333C27.7462 10.9477 27.841 10.8144 27.8783 10.6609C27.9156 10.5073 27.8925 10.3454 27.8138 10.2084C27.735 10.0714 27.6066 9.96996 27.4552 9.92496C27.3037 9.87996 27.1408 9.89487 27 9.96661L26.1427 10.4599C26.0142 10.5477 25.9235 10.6807 25.8889 10.8324C25.8542 10.9841 25.8781 11.1433 25.9558 11.2781C26.0335 11.4129 26.1592 11.5134 26.3079 11.5595C26.4565 11.6056 26.617 11.5938 26.7574 11.5266V11.5293ZM22.948 8.34661C23.0911 8.4273 23.2601 8.44862 23.4186 8.40598C23.5772 8.36334 23.7128 8.26015 23.796 8.11861L24.2907 7.26128C24.3631 7.12048 24.3787 6.95723 24.3342 6.80528C24.2897 6.65333 24.1884 6.5243 24.0515 6.44486C23.9145 6.36542 23.7523 6.34164 23.5983 6.37845C23.4443 6.41525 23.3103 6.50982 23.224 6.64261L22.728 7.49861C22.6467 7.64068 22.6241 7.80896 22.6652 7.96744C22.7064 8.12592 22.8079 8.26202 22.948 8.34661ZM27.6134 19.6706L26.7574 19.1759C26.6871 19.128 26.6078 19.0951 26.5242 19.0793C26.4407 19.0635 26.3548 19.0651 26.2719 19.084C26.189 19.103 26.1109 19.1388 26.0425 19.1893C25.9742 19.2398 25.9169 19.304 25.8745 19.3776C25.832 19.4513 25.8053 19.5329 25.7958 19.6174C25.7864 19.7019 25.7946 19.7875 25.8197 19.8687C25.8449 19.9499 25.8866 20.025 25.9422 20.0894C25.9978 20.1537 26.066 20.2059 26.1427 20.2426L27 20.7359C27.1408 20.8077 27.3037 20.8226 27.4552 20.7776C27.6066 20.7326 27.735 20.6311 27.8138 20.4942C27.8925 20.3572 27.9156 20.1952 27.8783 20.0417C27.841 19.8882 27.7462 19.7562 27.6134 19.6706ZM28.6094 14.7319H27.6187C27.4546 14.7319 27.2973 14.7971 27.1812 14.9131C27.0652 15.0292 27 15.1865 27 15.3506C27 15.5147 27.0652 15.6721 27.1812 15.7881C27.2973 15.9041 27.4546 15.9693 27.6187 15.9693H28.6094C28.7735 15.9693 28.9308 15.9041 29.0468 15.7881C29.1629 15.6721 29.228 15.5147 29.228 15.3506C29.228 15.1865 29.1629 15.0292 29.0468 14.9131C28.9308 14.7971 28.7735 14.7319 28.6094 14.7319ZM10.1907 11.0333L11.048 11.5293C11.1884 11.5965 11.3489 11.6082 11.4975 11.5622C11.6462 11.5161 11.7719 11.4156 11.8496 11.2807C11.9273 11.1459 11.9512 10.9867 11.9165 10.835C11.8819 10.6833 11.7912 10.5503 11.6627 10.4626L10.8 9.96394C10.658 9.88341 10.4899 9.86204 10.3322 9.90446C10.1745 9.94687 10.0399 10.0497 9.95737 10.1906C9.9167 10.2611 9.89046 10.339 9.88018 10.4197C9.86991 10.5004 9.8758 10.5824 9.89751 10.6608C9.91923 10.7393 9.95634 10.8126 10.0067 10.8765C10.057 10.9405 10.1196 10.9938 10.1907 11.0333ZM14.0094 8.11194C14.0461 8.18863 14.0983 8.25689 14.1626 8.31247C14.227 8.36804 14.3021 8.40973 14.3833 8.43491C14.4645 8.46009 14.55 8.46822 14.6346 8.4588C14.7191 8.44938 14.8007 8.4226 14.8744 8.38015C14.948 8.3377 15.0121 8.28049 15.0627 8.21211C15.1132 8.14372 15.149 8.06564 15.168 7.98275C15.1869 7.89986 15.1885 7.81395 15.1727 7.73042C15.1569 7.64688 15.124 7.56751 15.076 7.49728L14.5814 6.64128C14.5435 6.56687 14.4908 6.50095 14.4266 6.44753C14.3624 6.3941 14.288 6.35429 14.208 6.3305C14.1279 6.30671 14.0439 6.29945 13.9609 6.30916C13.878 6.31887 13.7979 6.34534 13.7255 6.38697C13.6531 6.4286 13.5899 6.48451 13.5398 6.55132C13.4897 6.61812 13.4537 6.69442 13.4339 6.77557C13.4142 6.85672 13.4112 6.94104 13.4251 7.02339C13.439 7.10574 13.4695 7.18441 13.5147 7.25461L14.0094 8.11194ZM18.9027 7.25461C18.9839 7.25461 19.0644 7.23861 19.1395 7.20752C19.2145 7.17643 19.2827 7.13086 19.3402 7.07341C19.3976 7.01596 19.4432 6.94776 19.4743 6.8727C19.5054 6.79764 19.5214 6.71719 19.5214 6.63595V5.64528C19.5214 5.4812 19.4562 5.32384 19.3402 5.20781C19.2241 5.09179 19.0668 5.02661 18.9027 5.02661C18.7386 5.02661 18.5813 5.09179 18.4652 5.20781C18.3492 5.32384 18.284 5.4812 18.284 5.64528V6.63595C18.284 6.80003 18.3492 6.95739 18.4652 7.07341C18.5813 7.18943 18.7386 7.25461 18.9027 7.25461ZM18.956 18.7706C19.906 18.7714 20.8233 19.1172 21.5374 19.7435C22.2516 20.3699 22.714 21.2342 22.8387 22.1759L22.8934 22.6079H23.3334C23.842 22.6318 24.3223 22.8487 24.6765 23.2144C25.0307 23.5802 25.232 24.0673 25.2395 24.5764C25.247 25.0855 25.06 25.5782 24.7168 25.9542C24.3735 26.3302 23.8997 26.5612 23.392 26.5999H5.73337C4.95974 26.5915 4.22026 26.28 3.67381 25.7323C3.12736 25.1846 2.81753 24.4444 2.8109 23.6708C2.80427 22.8971 3.10135 22.1517 3.63832 21.5948C4.1753 21.0378 4.90933 20.7136 5.6827 20.6919L6.1387 20.6839L6.16804 20.2293C6.25998 18.8708 6.81381 17.5846 7.73756 16.5842C8.66132 15.5839 9.89943 14.9296 11.2463 14.73C12.5932 14.5304 13.9679 14.7974 15.1421 15.4868C16.3163 16.1762 17.2194 17.2465 17.7014 18.5199L17.848 18.9106L18.2587 18.8306C18.4889 18.7903 18.7223 18.7702 18.956 18.7706Z" fill="#2988CC"/>
</svg>
