<svg width="208" height="56" viewBox="0 0 208 56" fill="none" xmlns="http://www.w3.org/2000/svg">
<path d="M208 56H94.855V0H208V56Z" fill="#004499"/>
<path d="M106.908 24.6391C101.278 21.3452 99.538 20.2126 102.506 17.5365C105.475 14.8595 114.175 8.92091 107.419 0.000701904H99.197H98.2756H2.05566V55.9998H98.2756H99.197H106.327C106.327 55.9998 105.065 51.918 106.805 49.7566C108.546 47.5944 107.932 46.05 104.758 44.6094C101.585 43.1671 105.782 41.2125 106.805 40.9028C107.829 40.5939 108.853 38.3296 105.373 36.7852C101.892 35.2416 104.451 33.2853 105.986 32.3587C107.522 31.432 112.537 27.9331 106.908 24.6391Z" fill="#F2F2F2"/>
<path d="M104.852 24.6391C99.2228 21.3452 97.4823 20.2126 100.451 17.5365C103.42 14.8595 112.12 8.92091 105.364 0.000701904H97.1413H96.2199H0V55.9998H96.2199H97.1413H104.273C104.273 55.9998 103.01 51.918 104.75 49.7566C106.49 47.5944 105.876 46.05 102.702 44.6094C99.5291 43.1671 103.726 41.2125 104.75 40.9028C105.774 40.5939 106.797 38.3296 103.317 36.7852C99.8363 35.2416 102.396 33.2853 103.932 32.3587C105.466 31.432 110.482 27.9331 104.852 24.6391Z" fill="#002047"/>
<path d="M134.009 37.2584C133.147 37.2584 132.372 37.1733 131.683 37.0048C130.994 36.8364 130.388 36.593 129.863 36.2748C129.337 35.9574 128.89 35.5702 128.522 35.1124C128.152 34.6538 127.857 34.1364 127.635 33.5586C127.454 33.0966 127.326 32.586 127.248 32.0253C127.17 31.4636 127.13 30.8365 127.13 30.1439V20.394H130.145V29.8716C130.145 31.0424 130.286 31.958 130.563 32.6183C130.875 33.3527 131.33 33.8828 131.93 34.2087C132.528 34.5346 133.234 34.6971 134.045 34.6971C134.858 34.6971 135.564 34.5346 136.162 34.2087C136.76 33.8828 137.216 33.3527 137.527 32.6183C137.806 31.958 137.947 31.0424 137.947 29.8716V20.394H140.961V30.1439C140.961 30.8365 140.922 31.4636 140.844 32.0253C140.766 32.586 140.636 33.0966 140.455 33.5586C140.234 34.1364 139.937 34.6538 139.564 35.1124C139.191 35.5702 138.735 35.9574 138.198 36.2748C137.661 36.593 137.043 36.8364 136.347 37.0048C135.649 37.1733 134.87 37.2584 134.009 37.2584Z" fill="#F2F2F2"/>
<path d="M147.851 36.9492H144.836V20.3936H155.319V22.9302H147.851V27.2112H154.236V29.7478H147.851V36.9492Z" fill="#F2F2F2"/>
<path d="M162.468 28.0034C163.157 28.0034 163.741 27.9719 164.221 27.9107C164.701 27.8486 165.105 27.7558 165.433 27.6316C166.04 27.401 166.461 27.0853 166.694 26.6853C166.928 26.2854 167.044 25.8251 167.044 25.306C167.044 24.8601 166.953 24.4661 166.768 24.1241C166.583 23.782 166.269 23.5114 165.826 23.314C165.54 23.1812 165.178 23.0851 164.743 23.023C164.309 22.9609 163.772 22.9302 163.132 22.9302H160.979V28.0034H162.468ZM170.146 25.3673C170.146 26.5228 169.827 27.5022 169.192 28.3063C168.556 29.1105 167.574 29.7061 166.246 30.095V30.1435L171.143 36.9492H167.525L163.047 30.54H160.979V36.9492H157.965V20.3936H162.972C163.8 20.3936 164.571 20.4413 165.286 20.5357C166 20.6302 166.61 20.7731 167.118 20.9629C168.087 21.3339 168.832 21.8844 169.358 22.6145C169.883 23.3446 170.146 24.2628 170.146 25.3673Z" fill="#F2F2F2"/>
<path d="M182.364 28.0898C183.544 29.7815 184.504 31.2816 185.242 32.5937H185.317C185.218 30.4409 185.168 28.8735 185.168 27.8924V20.3941H188.183V36.9496H185.022L179.657 29.3279C178.714 28.0073 177.736 26.4773 176.729 24.7372H176.654C176.753 26.7658 176.803 28.3374 176.803 29.4504V36.9496H173.787V20.3941H176.95L182.364 28.0898Z" fill="#F2F2F2"/>
<path d="M22.8454 22.6448C22.0246 22.6448 21.2682 22.7818 20.5752 23.0533C19.8822 23.3247 19.2874 23.7213 18.7907 24.242C18.294 24.7611 17.9073 25.4018 17.6281 26.166C17.3489 26.9284 17.2101 27.8014 17.2101 28.7825C17.2101 29.756 17.337 30.612 17.5917 31.3489C17.8455 32.0892 18.2102 32.7027 18.6858 33.198C19.1621 33.6941 19.7426 34.0676 20.4271 34.3186C21.1125 34.5722 21.8901 34.6973 22.759 34.6973C23.3818 34.6973 24.0181 34.6462 24.6662 34.5492C25.3135 34.4497 25.9211 34.305 26.4871 34.1153V36.7276C25.9126 36.8918 25.2932 37.0203 24.629 37.1173C23.9648 37.2101 23.2752 37.2586 22.5627 37.2586C21.1675 37.2586 19.9414 37.0586 18.8838 36.657C17.8244 36.2579 16.941 35.692 16.232 34.9619C15.5221 34.231 14.989 33.3597 14.6319 32.3402C14.2757 31.32 14.0972 30.1976 14.0972 28.9689C14.0972 27.707 14.2875 26.5336 14.6692 25.4529C15.0508 24.3739 15.5999 23.4362 16.3183 22.6448C17.0358 21.8535 17.9335 21.2306 19.0124 20.7771C20.0912 20.3235 21.3113 20.0921 22.6727 20.0844C23.37 20.0844 24.0308 20.1304 24.6535 20.2257C25.2771 20.321 25.839 20.4554 26.339 20.6273V23.2014C25.6833 22.9954 25.0715 22.8508 24.5063 22.7691C23.9403 22.6865 23.3869 22.6448 22.8454 22.6448Z" fill="#F2F2F2"/>
<path d="M37.3268 22.6448C36.506 22.6448 35.7496 22.7818 35.0566 23.0533C34.3636 23.3247 33.7688 23.7213 33.2721 24.242C32.7763 24.7611 32.3888 25.4018 32.1095 26.166C31.8303 26.9284 31.6915 27.8014 31.6915 28.7825C31.6915 29.756 31.8185 30.612 32.0731 31.3489C32.327 32.0892 32.6917 32.7027 33.1672 33.198C33.6436 33.6941 34.224 34.0676 34.9085 34.3186C35.5939 34.5722 36.3715 34.6973 37.2405 34.6973C37.8632 34.6973 38.4995 34.6462 39.1477 34.5492C39.795 34.4497 40.4025 34.305 40.9686 34.1153V36.7276C40.394 36.8918 39.7747 37.0203 39.1113 37.1173C38.4462 37.2101 37.7575 37.2586 37.0442 37.2586C35.6489 37.2586 34.4229 37.0586 33.3652 36.657C32.3058 36.2579 31.4225 35.692 30.7134 34.9619C30.0043 34.231 29.4704 33.3597 29.1134 32.3402C28.7571 31.32 28.5786 30.1976 28.5786 28.9689C28.5786 27.707 28.769 26.5336 29.1506 25.4529C29.5322 24.3739 30.0813 23.4362 30.7997 22.6448C31.5172 21.8535 32.415 21.2306 33.4938 20.7771C34.5726 20.3235 35.7936 20.0921 37.1542 20.0844C37.8514 20.0844 38.5122 20.1304 39.135 20.2257C39.7586 20.321 40.3204 20.4554 40.8205 20.6273V23.2014C40.1647 22.9954 39.553 22.8508 38.9878 22.7691C38.4217 22.6865 37.8683 22.6448 37.3268 22.6448Z" fill="#F2F2F2"/>
<path d="M47.0582 27.2111H53.7977V20.3926H56.8133V36.949H53.7977V29.7468H47.0582V36.949H44.0435V20.3926H47.0582V27.2111Z" fill="#F2F2F2"/>
<path d="M63.5618 20.3929V34.4119H71.2641V36.9493H60.5479V20.3929H63.5618Z" fill="#F2F2F2"/>
<path d="M79.9153 24.3769C79.3391 26.1094 78.8254 27.5568 78.3753 28.72L77.8118 30.1938H82.067L81.5052 28.72C81.0592 27.5458 80.5456 26.0992 79.9652 24.3769H79.9153ZM83.0392 32.7287H76.8404L75.2268 36.9493H72.0166L79.9271 18.7455L87.8385 36.9493H84.6528L83.0392 32.7287Z" fill="#F2F2F2"/>
</svg>
