<svg width="33" height="32" viewBox="0 0 33 32" fill="none" xmlns="http://www.w3.org/2000/svg">
<path d="M27.5 5H5.5C4.96957 5 4.46086 5.21071 4.08579 5.58579C3.71071 5.96086 3.5 6.46957 3.5 7V25C3.5 25.5304 3.71071 26.0391 4.08579 26.4142C4.46086 26.7893 4.96957 27 5.5 27H7.17375C7.36301 27.0001 7.5484 26.9464 7.70838 26.8453C7.86836 26.7442 7.99636 26.5997 8.0775 26.4287C8.56377 25.4021 9.33151 24.5346 10.2914 23.9271C11.2514 23.3196 12.364 22.9971 13.5 22.9971C14.636 22.9971 15.7486 23.3196 16.7086 23.9271C17.6685 24.5346 18.4362 25.4021 18.9225 26.4287C19.0036 26.5997 19.1316 26.7442 19.2916 26.8453C19.4516 26.9464 19.637 27.0001 19.8263 27H27.5C28.0304 27 28.5391 26.7893 28.9142 26.4142C29.2893 26.0391 29.5 25.5304 29.5 25V7C29.5 6.46957 29.2893 5.96086 28.9142 5.58579C28.5391 5.21071 28.0304 5 27.5 5ZM13.5 21C12.7089 21 11.9355 20.7654 11.2777 20.3259C10.6199 19.8864 10.1072 19.2616 9.80448 18.5307C9.50173 17.7998 9.42252 16.9956 9.57686 16.2196C9.7312 15.4437 10.1122 14.731 10.6716 14.1716C11.231 13.6122 11.9437 13.2312 12.7196 13.0769C13.4956 12.9225 14.2998 13.0017 15.0307 13.3045C15.7616 13.6072 16.3864 14.1199 16.8259 14.7777C17.2654 15.4355 17.5 16.2089 17.5 17C17.5 18.0609 17.0786 19.0783 16.3284 19.8284C15.5783 20.5786 14.5609 21 13.5 21ZM27.5 25H20.4287C19.9927 24.2484 19.4371 23.5729 18.7838 23H24.5C24.7652 23 25.0196 22.8946 25.2071 22.7071C25.3946 22.5196 25.5 22.2652 25.5 22V10C25.5 9.73478 25.3946 9.48043 25.2071 9.29289C25.0196 9.10536 24.7652 9 24.5 9H8.5C8.23478 9 7.98043 9.10536 7.79289 9.29289C7.60536 9.48043 7.5 9.73478 7.5 10V22C7.49989 22.2218 7.57351 22.4373 7.70928 22.6127C7.84505 22.788 8.03526 22.9133 8.25 22.9688C7.58148 23.5479 7.01413 24.2344 6.57125 25H5.5V7H27.5V25Z" fill="#2988CC"/>
</svg>
