<svg width="33" height="32" viewBox="0 0 33 32" fill="none" xmlns="http://www.w3.org/2000/svg">
<path d="M16.4999 28.1546C15.003 26.9333 13.3493 25.9697 11.5386 25.264C9.72792 24.5582 7.82614 24.1368 5.83325 24V11.5386C7.87236 11.6586 9.81014 12.1453 11.6466 12.9986C13.4821 13.852 15.0999 14.9088 16.4999 16.1693C17.8999 14.9088 19.5177 13.852 21.3533 12.9986C23.1888 12.1453 25.1266 11.6586 27.1666 11.5386V24C25.1684 24.1368 23.2653 24.5582 21.4573 25.264C19.6493 25.9697 17.9968 26.9333 16.4999 28.1546ZM16.4999 11.436C15.307 11.436 14.291 11.0164 13.4519 10.1773C12.6128 9.33818 12.1928 8.32174 12.1919 7.12796C12.191 5.93418 12.6106 4.91774 13.4506 4.07862C14.2906 3.23951 15.307 2.8204 16.4999 2.82129C17.6928 2.82218 18.7088 3.24173 19.5479 4.07996C20.387 4.91818 20.807 5.93418 20.8079 7.12796C20.8088 8.32174 20.3893 9.33818 19.5493 10.1773C18.7093 11.0164 17.6928 11.436 16.4999 11.436Z" fill="#2988CC"/>
</svg>
