<svg width="206" height="55" viewBox="0 0 206 55" fill="none" xmlns="http://www.w3.org/2000/svg">
<g clip-path="url(#clip0_2025_2583)">
<path d="M103.117 54.6108L103.225 55H0V0H155.083C127.186 0 104.36 0.0217925 104.36 0.0487736C104.36 0.074717 104.621 0.496038 104.939 0.983774C106.096 2.75415 106.628 4.25575 106.722 6.02406C106.899 9.33962 105.259 12.2017 101.152 15.7445C99.1044 17.5108 98.3865 18.2517 98.1659 18.8276C97.654 20.1663 98.5519 21.1148 102.641 23.5483C105.545 25.2761 106.33 26.1157 106.335 27.5C106.34 28.7982 105.122 30.3403 103.011 31.7049C100.918 33.0602 100.214 34.0004 100.657 34.8472C100.899 35.309 101.343 35.6545 102.348 36.1609C102.872 36.4245 103.509 36.8241 103.764 37.0482C104.951 38.0901 104.897 39.6509 103.654 40.1739C101.701 40.9947 100.51 41.8841 100.51 42.5192C100.51 43.0007 100.945 43.4355 101.903 43.9159C103.827 44.879 104.568 45.6562 104.568 46.7085C104.568 47.3415 104.391 47.8313 103.931 48.4675C103.706 48.7788 103.374 49.336 103.19 49.7075C102.885 50.3302 102.855 50.4796 102.817 51.644C102.777 52.8353 102.867 53.7205 103.117 54.6108ZM43.596 20.0283V36.3259L45.0787 36.2979L46.5614 36.2689L46.6165 29.2642H53.2724V36.3259L54.7551 36.2979L56.2378 36.2689L56.2909 20.0283H53.2756L53.2204 26.7217H46.6654L46.6103 20.0283H43.596ZM71.2904 36.2305C71.2706 36.2803 71.9594 36.3208 72.8209 36.3208C74.338 36.3208 74.391 36.3135 74.5128 36.0873C74.5825 35.9586 74.9529 35.036 75.3347 34.0377L76.0308 32.2217L79.1065 32.1947L82.1811 32.1667L82.6108 33.2843C82.847 33.8987 83.207 34.8326 83.4099 35.3608L83.7803 36.3208H85.2713C86.0995 36.3208 86.7904 36.2772 86.8247 36.2222C86.858 36.1682 85.6615 33.331 84.1663 29.9179L80.3374 21.1771C79.7266 19.7834 79.1814 18.6284 79.1252 18.6097C79.0555 18.5879 71.7867 34.9323 71.2904 36.2305ZM34.96 36.5179C36.2357 36.712 38.8327 36.5574 40.1884 36.2066L40.5786 36.1049V34.8005C40.5786 33.5998 40.5641 33.5023 40.3965 33.5697C39.3165 34.0045 36.4916 34.2152 35.3762 33.9443C33.4763 33.4836 32.2694 32.312 31.6669 30.3486C31.3766 29.398 31.3964 27.0745 31.7044 26.0991C32.3474 24.062 33.8145 22.7482 35.8236 22.4099C36.7528 22.2532 38.4508 22.3435 39.5621 22.6092C40.0043 22.714 40.3903 22.7762 40.4205 22.7461C40.4496 22.716 40.4746 22.1432 40.4746 21.4718V20.2525L39.7556 20.0895C38.1273 19.7201 35.7394 19.6973 34.3878 20.0387C31.8199 20.6873 29.9658 22.2968 28.9939 24.7189C28.4789 26.0025 28.3645 26.6916 28.3676 28.4858C28.3707 30.4347 28.5476 31.268 29.2561 32.6773C29.7743 33.7067 30.8179 34.8337 31.7918 35.4158C32.5347 35.86 34.008 36.3716 34.96 36.5179ZM20.6535 36.5169C22.0384 36.7161 24.6146 36.5667 25.8299 36.2159L26.22 36.1039V34.8627C26.22 34.7911 26.22 34.7226 26.22 34.6583C26.2211 34.0346 26.2221 33.7534 26.091 33.6631C25.9828 33.5884 25.7862 33.6424 25.4272 33.7399C25.3824 33.7524 25.3346 33.7648 25.2836 33.7783C24.9694 33.8634 24.1963 33.9848 23.5668 34.0481C20.2435 34.3854 17.8744 32.8807 17.2594 30.0425C17.0659 29.1448 17.0909 27.1835 17.3083 26.3585C17.8099 24.448 18.9211 23.211 20.6774 22.606C21.3007 22.3912 21.5566 22.3653 22.8905 22.3777C24.009 22.3892 24.6073 22.4452 25.2035 22.5967C25.6457 22.7088 26.0317 22.7762 26.0619 22.7461C26.091 22.716 26.116 22.1432 26.116 21.4718V20.2525L25.3658 20.0823C23.6698 19.6973 21.4734 19.6962 19.9303 20.0792C19.5839 20.1653 18.8222 20.4704 18.2365 20.7578C16.092 21.8101 14.7394 23.6842 14.1963 26.3585C13.9518 27.5643 14.0319 30.1358 14.3492 31.2182C15.2118 34.1633 17.4675 36.0582 20.6535 36.5169ZM59.9315 20.0283V36.3228L65.2119 36.2959L70.4924 36.2689L70.5506 33.8302H62.9489V20.0283H59.9315ZM81.099 29.5859C81.023 29.7083 77.0994 29.7083 77.0994 29.5859C77.0994 29.535 77.27 29.0556 77.4781 28.5222C77.6862 27.9888 78.1191 26.8006 78.4406 25.8822C78.761 24.9638 79.068 24.2021 79.12 24.1896C79.1731 24.1772 79.4831 24.9285 79.8088 25.8593C80.1334 26.7902 80.5704 27.9888 80.7785 28.5222C80.9866 29.0556 81.1312 29.534 81.099 29.5859Z" fill="#162556"/>
<path d="M205.807 55H104.209C104.752 55 105.192 54.9564 105.192 54.9025C105.192 54.8495 105.115 54.4874 105.021 54.0982C104.912 53.652 104.847 52.9142 104.841 52.0943C104.83 50.4755 104.987 49.9141 105.774 48.7694C106.091 48.3066 106.418 47.739 106.5 47.5075C106.985 46.1367 106.3 45.1436 104.042 43.945C102.319 43.0308 102.123 42.5783 103.058 41.6713C103.486 41.2573 104.664 40.5786 105.504 40.2631C106.234 39.9902 106.649 39.4236 106.649 38.7024C106.649 37.7445 105.954 36.9486 104.454 36.1879C102.606 35.2508 102.209 34.5742 102.886 33.5137C103.236 32.9637 103.732 32.5517 105.191 31.5959C107.292 30.2209 108.366 28.8158 108.36 27.4481C108.355 26.702 108.097 26.1478 107.413 25.4173C106.91 24.8818 106.45 24.5705 104.204 23.2442C101.092 21.4075 100.094 20.4963 100.094 19.4897C100.094 18.5755 100.557 18.0068 103.001 15.922C106.138 13.2467 107.878 10.8993 108.533 8.45755C108.869 7.20396 108.846 5.44915 108.477 4.21321C108.114 2.99802 107.614 1.9333 106.903 0.868585L106.347 0.035283C112.473 0.0145283 132.049 0 155.083 0H205.807V55ZM156.28 20.0003V36.3259L157.762 36.2979L159.245 36.2689L159.272 33.1785L159.3 30.0871L161.403 30.1462L163.563 33.2075L165.723 36.2689L167.418 36.2979C168.351 36.3135 169.148 36.2896 169.191 36.246C169.234 36.2014 168.198 34.6946 166.892 32.8962C164.67 29.8422 164.529 29.6211 164.741 29.5371C166.988 28.6415 168.012 27.5208 168.282 25.658C168.587 23.5535 167.698 21.7312 165.948 20.872C164.677 20.2483 163.734 20.1238 159.791 20.0584L156.28 20.0003ZM171.959 36.2543C171.999 36.2938 172.666 36.3135 173.441 36.2979L174.852 36.2689V30.3797C174.852 27.1409 174.875 24.4926 174.904 24.4958C174.933 24.4989 175.354 25.1537 175.841 25.9507C176.328 26.7487 178.151 29.4084 179.892 31.8616L183.06 36.3208H184.589C185.889 36.3208 186.129 36.2959 186.182 36.1568C186.265 35.942 186.265 20.4071 186.182 20.1923C186.129 20.0532 185.895 20.0283 184.666 20.0283H183.213L183.247 25.8915C183.265 29.1168 183.252 31.7547 183.219 31.7547C183.184 31.7547 182.842 31.2421 182.459 30.6163C181.764 29.4821 180.489 27.6401 176.942 22.6486L175.079 20.0283H171.887V28.105C171.887 32.5475 171.919 36.2149 171.959 36.2543ZM130.892 36.4775C132.445 36.7431 134.21 36.6279 135.555 36.1724C137.527 35.503 138.724 34.1633 139.269 32.0142C139.43 31.3791 139.459 30.6142 139.5 25.9081C139.525 22.9495 139.518 20.4154 139.483 20.2784C139.42 20.0293 139.416 20.0283 137.965 20.0283H136.511V24.8984C136.511 29.9667 136.45 30.9318 136.072 31.954C135.776 32.752 134.997 33.5178 134.172 33.8229C132.88 34.2992 131.183 34.0678 130.135 33.2719C129.617 32.8786 129.068 31.8761 128.914 31.0397C128.855 30.7191 128.811 28.2607 128.811 25.2543V20.0283H125.782L125.819 25.8137C125.858 32.1657 125.853 32.1034 126.523 33.4763C127.297 35.0651 128.841 36.1246 130.892 36.4775ZM143.346 36.2543C143.386 36.2938 144.053 36.3135 144.828 36.2979L146.239 36.2689L146.294 29.2673L152.586 29.2123L152.644 26.7767L146.343 26.7217L146.287 22.6258L153.627 22.5708L153.685 20.0283H143.274V28.105C143.274 32.5475 143.306 36.2149 143.346 36.2543ZM162.627 27.3942C162.255 27.4512 161.353 27.499 160.624 27.499L159.297 27.5V22.6226H161.061C162.999 22.6226 163.708 22.7243 164.359 23.099C165.242 23.6043 165.507 24.943 164.942 26.0544C164.69 26.5505 164.574 26.6584 163.979 26.9542C163.608 27.1389 162.998 27.3371 162.627 27.3942Z" fill="#193CB8"/>
<path d="M103.116 54.6108C102.867 53.7205 102.777 52.8353 102.817 51.644C102.855 50.4796 102.884 50.3302 103.19 49.7075C103.373 49.336 103.706 48.7788 103.931 48.4675C104.391 47.8313 104.568 47.3415 104.568 46.7085C104.568 45.6562 103.827 44.879 101.903 43.9159C100.945 43.4355 100.51 43.0007 100.51 42.5192C100.51 41.8841 101.701 40.9947 103.654 40.1739C104.897 39.6509 104.951 38.0901 103.764 37.0482C103.509 36.8241 102.872 36.4245 102.348 36.1609C101.342 35.6545 100.899 35.309 100.657 34.8472C100.213 34.0004 100.918 33.0602 103.011 31.7049C105.121 30.3403 106.34 28.7982 106.335 27.5C106.329 26.1157 105.545 25.2761 102.641 23.5483C98.5519 21.1148 97.6539 20.1663 98.1658 18.8276C98.3864 18.2517 99.1043 17.5108 101.152 15.7445C105.259 12.2017 106.899 9.33962 106.722 6.02406C106.628 4.25575 106.096 2.75415 104.939 0.983774C104.621 0.496038 104.36 0.074717 104.36 0.0487736C104.36 0.0217925 104.802 0 105.342 0H106.323L106.903 0.868585C107.613 1.9333 108.114 2.99802 108.477 4.21321C108.846 5.44915 108.869 7.20396 108.533 8.45755C107.878 10.8993 106.138 13.2467 103.001 15.922C100.557 18.0068 100.094 18.5755 100.094 19.4897C100.094 20.4963 101.092 21.4075 104.204 23.2442C106.45 24.5705 106.91 24.8818 107.413 25.4173C108.097 26.1478 108.355 26.702 108.359 27.4481C108.366 28.8158 107.292 30.2209 105.191 31.5959C103.731 32.5517 103.236 32.9637 102.885 33.5137C102.209 34.5742 102.606 35.2508 104.453 36.1879C105.954 36.9486 106.649 37.7445 106.649 38.7024C106.649 39.4236 106.234 39.9902 105.504 40.2631C104.664 40.5786 103.486 41.2573 103.058 41.6713C102.123 42.5783 102.318 43.0308 104.041 43.945C106.3 45.1436 106.985 46.1367 106.5 47.5075C106.418 47.739 106.091 48.3066 105.774 48.7694C104.987 49.9141 104.83 50.4755 104.84 52.0943C104.847 52.9142 104.912 53.652 105.02 54.0982C105.115 54.4874 105.192 54.8495 105.192 54.9025C105.192 54.9564 104.752 55 104.209 55H103.225L103.116 54.6108ZM20.6534 36.5169C17.4674 36.0582 15.2117 34.1633 14.3491 31.2182C14.0318 30.1358 13.9517 27.5643 14.1962 26.3585C14.7393 23.6842 16.0919 21.8101 18.2363 20.7578C18.8221 20.4704 19.5838 20.1653 19.9302 20.0792C21.4733 19.6962 23.6697 19.6973 25.3657 20.0823L26.1159 20.2525V21.4718C26.1159 22.1432 26.0909 22.716 26.0618 22.7461C26.0316 22.7762 25.6456 22.7088 25.2034 22.5967C24.6072 22.4452 24.0089 22.3892 22.8904 22.3777C21.5565 22.3653 21.3005 22.3912 20.6773 22.606C18.921 23.211 17.8097 24.448 17.3082 26.3585C17.0908 27.1835 17.0658 29.1448 17.2593 30.0425C17.8743 32.8807 20.2434 34.3854 23.5667 34.0481C24.1962 33.9848 24.9693 33.8634 25.2835 33.7783C26.273 33.5126 26.2199 33.4514 26.2199 34.8627V36.1039L25.8297 36.2159C24.6145 36.5667 22.0382 36.7161 20.6534 36.5169ZM34.9599 36.5179C34.0079 36.3716 32.5346 35.86 31.7917 35.4158C30.8178 34.8337 29.7742 33.7067 29.256 32.6773C28.5475 31.268 28.3706 30.4347 28.3675 28.4858C28.3644 26.6916 28.4788 26.0025 28.9938 24.7189C29.9656 22.2968 31.8198 20.6873 34.3877 20.0387C35.7393 19.6973 38.1272 19.7201 39.7555 20.0895L40.4745 20.2525V21.4718C40.4745 22.1432 40.4495 22.716 40.4204 22.7461C40.3902 22.7762 40.0042 22.714 39.562 22.6092C38.4507 22.3435 36.7527 22.2532 35.8235 22.4099C33.8144 22.7482 32.3473 24.062 31.7043 26.0991C31.3963 27.0745 31.3765 29.398 31.6668 30.3486C32.2693 32.312 33.4762 33.4836 35.3761 33.9443C36.4915 34.2152 39.3164 34.0045 40.3964 33.5697C40.564 33.5023 40.5785 33.5998 40.5785 34.8005V36.1049L40.1883 36.2066C38.8326 36.5574 36.2356 36.712 34.9599 36.5179ZM130.892 36.4775C128.841 36.1246 127.297 35.0651 126.523 33.4763C125.853 32.1034 125.858 32.1657 125.819 25.8137L125.782 20.0283H127.297H128.811V25.2543C128.811 28.2607 128.855 30.7191 128.914 31.0397C129.068 31.8761 129.616 32.8786 130.134 33.2719C131.183 34.0678 132.88 34.2992 134.172 33.8229C134.997 33.5178 135.776 32.752 136.071 31.954C136.45 30.9318 136.511 29.9667 136.511 24.8984V20.0283H137.965C139.416 20.0283 139.42 20.0293 139.483 20.2784C139.518 20.4154 139.525 22.9495 139.5 25.9081C139.459 30.6142 139.43 31.3791 139.269 32.0142C138.724 34.1633 137.527 35.503 135.554 36.1724C134.21 36.6279 132.444 36.7431 130.892 36.4775ZM43.5959 28.1776V20.0283H45.1036H46.6102L46.6383 23.375L46.6653 26.7217H49.9428H53.2203L53.2474 23.375L53.2755 20.0283H54.7831H56.2908L56.2648 28.1486L56.2377 36.2689L54.755 36.2979L53.2723 36.3259V32.7956V29.2642H49.9439H46.6164L46.5883 32.7665L46.5613 36.2689L45.0786 36.2979L43.5959 36.3259V28.1776ZM59.9314 28.1756V20.0283H61.4401H62.9488V26.9292V33.8302H66.7497H70.5505L70.5214 35.0495L70.4923 36.2689L65.2118 36.2959L59.9314 36.3228V28.1756ZM71.2903 36.2305C71.7866 34.9323 79.0554 18.5879 79.1251 18.6097C79.1813 18.6284 79.7265 19.7834 80.3373 21.1771C80.948 22.5718 82.671 26.5048 84.1662 29.9179C85.6614 33.331 86.8579 36.1682 86.8246 36.2222C86.7903 36.2772 86.0994 36.3208 85.2712 36.3208H83.7802L83.4098 35.3608C83.2069 34.8326 82.8469 33.8987 82.6107 33.2843L82.181 32.1667L79.1064 32.1947L76.0307 32.2217L75.3346 34.0377C74.9528 35.036 74.5824 35.9586 74.5127 36.0873C74.3909 36.3135 74.3379 36.3208 72.8208 36.3208C71.9593 36.3208 71.2705 36.2803 71.2903 36.2305ZM81.0989 29.5859C81.1311 29.534 80.9865 29.0556 80.7784 28.5222C80.5703 27.9888 80.1333 26.7902 79.8087 25.8593C79.483 24.9285 79.173 24.1772 79.1199 24.1896C79.0679 24.2021 78.7609 24.9638 78.4405 25.8822C78.119 26.8006 77.6861 27.9888 77.478 28.5222C77.2699 29.0556 77.0993 29.535 77.0993 29.5859C77.0993 29.7083 81.0229 29.7083 81.0989 29.5859ZM143.345 36.2543C143.306 36.2149 143.274 32.5475 143.274 28.105V20.0283H148.479H153.685L153.656 21.2995L153.626 22.5708L149.957 22.5977L146.287 22.6258L146.315 24.6732L146.343 26.7217L149.494 26.7487L152.644 26.7767L152.615 27.994L152.586 29.2123L149.44 29.2392L146.294 29.2673L146.266 32.7675L146.239 36.2689L144.828 36.2979C144.053 36.3135 143.386 36.2938 143.345 36.2543ZM156.28 28.1631V20.0003L159.791 20.0584C163.734 20.1238 164.677 20.2483 165.948 20.872C167.698 21.7312 168.586 23.5535 168.282 25.658C168.012 27.5208 166.988 28.6415 164.741 29.5371C164.529 29.6211 164.67 29.8422 166.891 32.8962C168.198 34.6946 169.234 36.2014 169.191 36.246C169.148 36.2896 168.351 36.3135 167.418 36.2979L165.723 36.2689L163.563 33.2075L161.403 30.1462L160.352 30.1172L159.3 30.0871L159.272 33.1785L159.245 36.2689L157.762 36.2979L156.28 36.3259V28.1631ZM162.627 27.3942C162.998 27.3371 163.608 27.1389 163.979 26.9542C164.574 26.6584 164.69 26.5505 164.942 26.0544C165.507 24.943 165.242 23.6043 164.359 23.099C163.708 22.7243 162.999 22.6226 161.061 22.6226H159.297V25.0613V27.5L160.624 27.499C161.353 27.499 162.255 27.4512 162.627 27.3942ZM171.959 36.2543C171.919 36.2149 171.887 32.5475 171.887 28.105V20.0283H173.483H175.079L176.941 22.6486C180.488 27.6401 181.764 29.4821 182.459 30.6163C182.842 31.2421 183.184 31.7547 183.219 31.7547C183.252 31.7547 183.264 29.1168 183.247 25.8915L183.212 20.0283H184.666C185.895 20.0283 186.129 20.0532 186.182 20.1923C186.265 20.4071 186.265 35.942 186.182 36.1568C186.129 36.2959 185.888 36.3208 184.589 36.3208H183.059L179.892 31.8616C178.15 29.4084 176.328 26.7487 175.841 25.9507C175.354 25.1537 174.933 24.4989 174.904 24.4958C174.875 24.4926 174.852 27.1409 174.852 30.3797V36.2689L173.441 36.2979C172.666 36.3135 171.999 36.2938 171.959 36.2543Z" fill="#FEFEFE"/>
</g>
<defs>
<clipPath id="clip0_2025_2583">
<rect width="205.806" height="55" fill="white"/>
</clipPath>
</defs>
</svg>
