<svg width="63" height="62" viewBox="0 0 63 62" fill="none" xmlns="http://www.w3.org/2000/svg">
<path d="M32.6375 61.5614L32.7595 62.0001H0V0.000144958L52.9307 0C21.4829 0 34.0391 0.0247111 34.0391 0.0551262C34.0391 0.0843715 34.3335 0.559315 34.6924 1.10913C35.9967 3.10482 36.596 4.79754 36.7016 6.7909C36.901 10.5284 35.0525 13.7548 30.4231 17.7485C28.1148 19.7395 27.3055 20.5748 27.0568 21.224C26.4798 22.7331 27.492 23.8023 32.1015 26.5455C35.375 28.4932 36.2594 29.4396 36.2653 31.0001C36.2711 32.4636 34.8977 34.2019 32.519 35.7402C30.1591 37.268 29.3651 38.3278 29.8647 39.2824C30.138 39.803 30.6377 40.1925 31.7707 40.7634C32.3619 41.0605 33.0797 41.5109 33.367 41.7636C34.7053 42.9381 34.6443 44.6975 33.2439 45.2871C31.0423 46.2124 29.6994 47.2149 29.6994 47.9308C29.6994 48.4736 30.1896 48.9638 31.2699 49.5054C33.4386 50.591 34.2737 51.4672 34.2737 52.6534C34.2737 53.3669 34.0743 53.9191 33.5559 54.6362C33.3025 54.9871 32.9272 55.6153 32.7208 56.0341C32.3759 56.736 32.3431 56.9044 32.2997 58.217C32.2551 59.5599 32.356 60.5577 32.6375 61.5614Z" fill="#162556"/>
<path d="M62.1272 62L33.869 62.0001C34.4813 62.0001 34.9774 61.951 34.9774 61.8902C34.9774 61.8305 34.8906 61.4222 34.7839 60.9836C34.6619 60.4805 34.588 59.6488 34.581 58.7247C34.5693 56.8998 34.7464 56.2669 35.6331 54.9766C35.9908 54.4549 36.3591 53.815 36.4518 53.5541C36.9983 52.0088 36.2266 50.8893 33.6802 49.5381C31.7379 48.5075 31.5174 47.9975 32.5718 46.9751C33.0539 46.5083 34.3816 45.7433 35.3293 45.3877C36.1515 45.08 36.6195 44.4413 36.6195 43.6283C36.6195 42.5485 35.836 41.6513 34.1447 40.7938C32.0616 39.7375 31.6147 38.9748 32.3771 37.7792C32.7724 37.1592 33.3307 36.6948 34.9763 35.6174C37.3443 34.0674 38.5548 32.4835 38.5477 30.9417C38.543 30.1006 38.2522 29.4759 37.4804 28.6523C36.9139 28.0487 36.3955 27.6978 33.8632 26.2027C30.355 24.1322 29.2302 23.1051 29.2302 21.9704C29.2302 20.9398 29.7522 20.2987 32.5073 17.9486C36.0436 14.9328 38.0047 12.2867 38.7436 9.53411C39.1225 8.12098 39.0967 6.14282 38.6803 4.74958C38.2709 3.37973 37.7068 2.1795 36.9057 0.979277L36.2794 0.0399189C43.1842 0.0165227 26.965 0 52.9307 0H62.1272V62Z" fill="#193CB8"/>
<path d="M32.6375 61.5614C32.356 60.5577 32.2551 59.5599 32.2997 58.217C32.3431 56.9044 32.3759 56.736 32.7208 56.0341C32.9272 55.6153 33.3025 54.9871 33.5559 54.6362C34.0743 53.9191 34.2737 53.3669 34.2737 52.6534C34.2737 51.4672 33.4386 50.591 31.2699 49.5054C30.1896 48.9638 29.6994 48.4736 29.6994 47.9308C29.6994 47.2149 31.0423 46.2124 33.2439 45.2871C34.6443 44.6975 34.7053 42.9381 33.367 41.7636C33.0797 41.5109 32.3619 41.0605 31.7707 40.7634C30.6377 40.1925 30.138 39.803 29.8647 39.2824C29.3651 38.3278 30.1591 37.268 32.519 35.7402C34.8977 34.2019 36.2711 32.4636 36.2653 31.0001C36.2594 29.4396 35.375 28.4932 32.1015 26.5455C27.492 23.8023 26.4798 22.7331 27.0568 21.224C27.3055 20.5748 28.1148 19.7395 30.4231 17.7485C35.0525 13.7548 36.901 10.5284 36.7016 6.7909C36.596 4.79754 35.9967 3.10482 34.6924 1.10913C34.3335 0.559315 34.0391 0.0843715 34.0391 0.0551262C34.0391 0.0247111 34.5376 0.000144958 35.1463 0.000144958H36.2524L36.9057 0.979277C37.7068 2.1795 38.2709 3.37973 38.6803 4.74958C39.0967 6.14282 39.1225 8.12098 38.7436 9.53411C38.0047 12.2867 36.0436 14.9328 32.5073 17.9486C29.7522 20.2987 29.2302 20.9398 29.2302 21.9704C29.2302 23.1051 30.355 24.1322 33.8632 26.2027C36.3955 27.6978 36.9139 28.0487 37.4804 28.6523C38.2522 29.4759 38.543 30.1006 38.5477 30.9417C38.5548 32.4835 37.3443 34.0674 34.9763 35.6174C33.3307 36.6948 32.7724 37.1592 32.3771 37.7792C31.6147 38.9748 32.0616 39.7375 34.1447 40.7938C35.836 41.6513 36.6195 42.5485 36.6195 43.6283C36.6195 44.4413 36.1515 45.08 35.3293 45.3877C34.3816 45.7433 33.0539 46.5083 32.5718 46.9751C31.5174 47.9975 31.7379 48.5075 33.6802 49.5381C36.2266 50.8893 36.9983 52.0088 36.4518 53.5541C36.3591 53.815 35.9908 54.4549 35.6331 54.9766C34.7464 56.2669 34.5693 56.8998 34.581 58.7247C34.588 59.6488 34.6619 60.4805 34.7839 60.9836C34.8906 61.4222 34.9774 61.8305 34.9774 61.8902C34.9774 61.951 34.4813 62.0001 33.869 62.0001H32.7595L32.6375 61.5614Z" fill="#FEFEFE"/>
</svg>
